<svg width="48" height="48" viewBox="0 0 48 48" fill="none" xmlns="http://www.w3.org/2000/svg">
<rect y="0.00341797" width="48" height="48" rx="6" fill="#520DC2"/>
<path d="M24.9286 36.1828C25.7429 36.1828 26.4479 36.0917 27.0434 35.9094C27.2258 35.727 27.3534 35.5143 27.4263 35.2713C27.4992 35.0403 27.5357 34.8216 27.5357 34.6149C27.5357 34.3962 27.5175 34.2321 27.481 34.1227C27.4445 34.0254 27.3838 33.9343 27.2987 33.8492C26.7882 33.7641 26.1866 33.7034 25.4938 33.6669C24.8131 33.6426 24.406 33.6244 24.2723 33.6122C22.5828 33.5393 21.2094 33.4177 20.152 33.2476C19.0946 33.0653 18.1891 32.6763 17.4355 32.0808C16.6819 31.4731 16.3052 30.5615 16.3052 29.3461C16.3052 28.6897 16.5179 28.0759 16.9433 27.5047C17.3687 26.9213 17.9217 26.4108 18.6023 25.9733C17.2167 25.402 16.1046 24.5451 15.266 23.4026C14.4395 22.248 14.0262 20.7591 14.0262 18.9359C14.0262 17.125 14.4881 15.6725 15.4118 14.5786C16.3477 13.4726 17.4963 12.6947 18.8576 12.245C20.2188 11.7953 21.6044 11.5705 23.0143 11.5705C23.9016 11.5705 24.7706 11.6555 25.6214 11.8257C26.4722 11.9959 27.2622 12.239 27.9915 12.555L27.2075 7.92419C27.9489 7.47449 28.8727 7.24963 29.9787 7.24963C30.7809 7.24963 31.5284 7.38333 32.2212 7.65072C32.9139 7.91812 33.4427 8.30098 33.8073 8.7993C33.8316 8.92084 33.8438 9.11531 33.8438 9.3827C33.8438 10.3794 33.6614 11.4915 33.2968 12.719C32.9443 13.9345 32.3305 14.9129 31.4554 15.6543C31.893 16.5294 32.1118 17.4714 32.1118 18.4802C32.1118 19.963 31.8261 21.3303 31.2549 22.5822C30.6958 23.8341 29.7599 24.8551 28.4473 25.6451C27.1346 26.423 25.4269 26.8119 23.3242 26.8119C22.7165 26.8119 22.0845 26.7754 21.4282 26.7025C21.3917 27.3102 21.5376 27.9179 21.8657 28.5257C23.5066 28.2096 24.8314 28.0456 25.8402 28.0334L27.0799 28.0152C28.7572 28.0152 30.0273 28.1185 30.8903 28.3251C31.8383 28.556 32.5432 29.0787 33.0051 29.893C33.4791 30.7073 33.7161 31.6979 33.7161 32.8647C33.7161 34.6879 33.157 36.2193 32.0388 37.459C30.9328 38.7109 29.4925 39.6407 27.718 40.2484C25.9556 40.8561 24.0839 41.16 22.1027 41.16C20.2675 41.16 18.6327 40.8501 17.1985 40.2302C15.7643 39.6103 14.8588 38.4739 14.482 36.8209C14.8831 35.4232 15.6488 34.3658 16.7792 33.6487C18.2985 34.5602 19.7509 35.2105 21.1365 35.5994C22.5342 35.9884 23.7983 36.1828 24.9286 36.1828ZM23.8165 22.3088C24.6916 22.3088 25.2021 22.2541 25.3479 22.1447C25.6761 21.4883 25.8402 20.8138 25.8402 20.121C25.8402 19.4039 25.6761 18.7293 25.3479 18.0973C25.1899 17.9636 24.8375 17.8603 24.2905 17.7874C23.7557 17.7144 23.1723 17.678 22.5403 17.678C21.7503 17.678 21.2216 17.7266 20.9542 17.8238C20.5774 18.4923 20.389 19.1669 20.389 19.8475C20.389 20.5403 20.5652 21.1966 20.9177 21.8165C21.1851 21.9867 21.5862 22.1143 22.121 22.1994C22.6679 22.2723 23.2331 22.3088 23.8165 22.3088Z" fill="white"/>
</svg>
